<?xml version="1.0" encoding="utf-8"?>
<!-- Generator: Adobe Illustrator 14.0.0, SVG Export Plug-In . SVG Version: 6.00 Build 43363)  -->
<!DOCTYPE svg PUBLIC "-//W3C//DTD SVG 1.1 Basic//EN" "http://www.w3.org/Graphics/SVG/1.1/DTD/svg11-basic.dtd">
<svg version="1.1" baseProfile="basic" id="Layer_1"
	 xmlns="http://www.w3.org/2000/svg" xmlns:xlink="http://www.w3.org/1999/xlink" x="0px" y="0px" width="290.5px" height="81.5px"
	 viewBox="0 0 290.5 81.5" xml:space="preserve">
<path fill="none" stroke="#EA6F25" stroke-width="5" d="M-13,34.5c13.749,0,13.749,8,27.498,8c13.75,0,13.75-8,27.499-8
	c13.747,0,13.747,8,27.494,8c13.748,0,13.748-8,27.496-8c13.749,0,13.749,8,27.498,8c13.75,0,13.75-8,27.5-8
	c13.75,0,13.75,8,27.501,8c13.75,0,13.75-8,27.5-8c13.751,0,13.751,8,27.502,8c13.752,0,13.752-8,27.505-8s13.753,8,27.506,8"/>
</svg>
